<?xml version="1.0" encoding="UTF-8"?><svg xmlns="http://www.w3.org/2000/svg" width="100" height="100" viewBox="0 0 100 100"><polygon points="0 52.7245603 15.7894686 52.7245603 15.7894686 35.1497176 0 52.7245603" style="fill:#008836; stroke-width:0px;"/><polygon points="21.0526302 29.2914367 21.0526302 100 36.8420988 100 36.8420988 11.7165939 21.0526302 29.2914367" style="fill:#008836; stroke-width:0px;"/><polygon points="42.1052603 5.8582809 42.1052603 100 47.3684165 100 47.3684165 0 42.1052603 5.8582809" style="fill:#008836; stroke-width:0px;"/><polygon points="52.6315781 .1857074 52.6315781 100 68.4210467 100 68.4210467 17.6986477 52.6315781 .1857074" style="fill:#008836; stroke-width:0px;"/><polygon points="73.6842083 23.5363051 73.6842083 100 78.9473645 100 78.9473645 29.3739626 73.6842083 23.5363051" style="fill:#353744; stroke-width:0px;"/><polygon points="84.210526 35.2116201 84.210526 52.7245603 89.4736822 52.7245603 89.4736822 41.0492454 84.210526 35.2116201" style="fill:#353744; stroke-width:0px;"/><polygon points="94.7368438 52.7245603 100 52.7245603 94.7368438 46.8869029 94.7368438 52.7245603" style="fill:#353744; stroke-width:0px;"/></svg>